<mxfile host="app.diagrams.net" modified="2024-05-10T18:52:56.014Z" agent="Mozilla/5.0 (Windows NT 10.0; Win64; x64) AppleWebKit/537.36 (KHTML, like Gecko) Chrome/124.0.0.0 Safari/537.36" etag="WfdMhqxes8O7uIPsQQ7p" version="24.3.1" type="github">
  <diagram name="Page-1" id="GjfGCH02hsBYZyg1tUS-">
    <mxGraphModel dx="2109" dy="686" grid="1" gridSize="10" guides="1" tooltips="1" connect="1" arrows="1" fold="1" page="1" pageScale="1" pageWidth="850" pageHeight="1100" math="0" shadow="0">
      <root>
        <mxCell id="0" />
        <mxCell id="1" parent="0" />
        <mxCell id="J-ahsq5juDmwi4g34Pzo-4" value="Admin" style="shape=partialRectangle;whiteSpace=wrap;html=1;left=0;right=0;fillColor=none;" vertex="1" parent="1">
          <mxGeometry x="630" y="130" width="120" height="40" as="geometry" />
        </mxCell>
        <mxCell id="J-ahsq5juDmwi4g34Pzo-5" value="D1" style="rounded=0;whiteSpace=wrap;html=1;" vertex="1" parent="1">
          <mxGeometry x="580" y="130" width="50" height="40" as="geometry" />
        </mxCell>
        <mxCell id="J-ahsq5juDmwi4g34Pzo-7" value="1.0" style="swimlane;whiteSpace=wrap;html=1;rounded=1;startSize=40;" vertex="1" parent="1">
          <mxGeometry x="320" y="100" width="140" height="100" as="geometry" />
        </mxCell>
        <mxCell id="J-ahsq5juDmwi4g34Pzo-10" value="Registration" style="text;html=1;align=center;verticalAlign=middle;resizable=0;points=[];autosize=1;strokeColor=none;fillColor=none;" vertex="1" parent="1">
          <mxGeometry x="345" y="148" width="90" height="30" as="geometry" />
        </mxCell>
        <mxCell id="J-ahsq5juDmwi4g34Pzo-11" value="" style="endArrow=classic;html=1;rounded=0;entryX=0;entryY=0.25;entryDx=0;entryDy=0;" edge="1" parent="1" target="J-ahsq5juDmwi4g34Pzo-5">
          <mxGeometry width="50" height="50" relative="1" as="geometry">
            <mxPoint x="460" y="140" as="sourcePoint" />
            <mxPoint x="510" y="90" as="targetPoint" />
          </mxGeometry>
        </mxCell>
        <mxCell id="J-ahsq5juDmwi4g34Pzo-12" value="ADMIN" style="rounded=0;whiteSpace=wrap;html=1;" vertex="1" parent="1">
          <mxGeometry x="-20" y="130" width="220" height="40" as="geometry" />
        </mxCell>
        <mxCell id="J-ahsq5juDmwi4g34Pzo-13" value="" style="endArrow=classic;html=1;rounded=0;entryX=0;entryY=0.25;entryDx=0;entryDy=0;" edge="1" parent="1">
          <mxGeometry width="50" height="50" relative="1" as="geometry">
            <mxPoint x="200" y="140" as="sourcePoint" />
            <mxPoint x="320" y="140" as="targetPoint" />
          </mxGeometry>
        </mxCell>
        <mxCell id="J-ahsq5juDmwi4g34Pzo-14" value="" style="endArrow=classic;html=1;rounded=0;" edge="1" parent="1">
          <mxGeometry width="50" height="50" relative="1" as="geometry">
            <mxPoint x="580" y="160" as="sourcePoint" />
            <mxPoint x="460" y="160" as="targetPoint" />
          </mxGeometry>
        </mxCell>
        <mxCell id="J-ahsq5juDmwi4g34Pzo-15" value="" style="endArrow=classic;html=1;rounded=0;" edge="1" parent="1">
          <mxGeometry width="50" height="50" relative="1" as="geometry">
            <mxPoint x="320" y="160" as="sourcePoint" />
            <mxPoint x="200" y="160" as="targetPoint" />
          </mxGeometry>
        </mxCell>
        <mxCell id="J-ahsq5juDmwi4g34Pzo-16" value="Request" style="text;html=1;align=center;verticalAlign=middle;whiteSpace=wrap;rounded=0;" vertex="1" parent="1">
          <mxGeometry x="230" y="110" width="60" height="30" as="geometry" />
        </mxCell>
        <mxCell id="J-ahsq5juDmwi4g34Pzo-17" value="Authenticate" style="text;html=1;align=center;verticalAlign=middle;whiteSpace=wrap;rounded=0;" vertex="1" parent="1">
          <mxGeometry x="480" y="110" width="80" height="30" as="geometry" />
        </mxCell>
        <mxCell id="J-ahsq5juDmwi4g34Pzo-19" value="Response" style="text;html=1;align=center;verticalAlign=middle;whiteSpace=wrap;rounded=0;" vertex="1" parent="1">
          <mxGeometry x="230" y="160" width="70" height="30" as="geometry" />
        </mxCell>
        <mxCell id="J-ahsq5juDmwi4g34Pzo-20" value="Reply" style="text;html=1;align=center;verticalAlign=middle;whiteSpace=wrap;rounded=0;" vertex="1" parent="1">
          <mxGeometry x="490" y="160" width="70" height="30" as="geometry" />
        </mxCell>
        <mxCell id="J-ahsq5juDmwi4g34Pzo-21" value="User" style="shape=partialRectangle;whiteSpace=wrap;html=1;left=0;right=0;fillColor=none;" vertex="1" parent="1">
          <mxGeometry x="630" y="260" width="120" height="40" as="geometry" />
        </mxCell>
        <mxCell id="J-ahsq5juDmwi4g34Pzo-22" value="D1" style="rounded=0;whiteSpace=wrap;html=1;" vertex="1" parent="1">
          <mxGeometry x="580" y="260" width="50" height="40" as="geometry" />
        </mxCell>
        <mxCell id="J-ahsq5juDmwi4g34Pzo-23" value="2.0" style="swimlane;whiteSpace=wrap;html=1;rounded=1;startSize=40;" vertex="1" parent="1">
          <mxGeometry x="320" y="230" width="140" height="100" as="geometry" />
        </mxCell>
        <mxCell id="J-ahsq5juDmwi4g34Pzo-24" value="Login" style="text;html=1;align=center;verticalAlign=middle;resizable=0;points=[];autosize=1;strokeColor=none;fillColor=none;" vertex="1" parent="1">
          <mxGeometry x="365" y="278" width="50" height="30" as="geometry" />
        </mxCell>
        <mxCell id="J-ahsq5juDmwi4g34Pzo-25" value="" style="endArrow=classic;html=1;rounded=0;entryX=0;entryY=0.25;entryDx=0;entryDy=0;" edge="1" parent="1" target="J-ahsq5juDmwi4g34Pzo-22">
          <mxGeometry width="50" height="50" relative="1" as="geometry">
            <mxPoint x="460" y="270" as="sourcePoint" />
            <mxPoint x="510" y="220" as="targetPoint" />
          </mxGeometry>
        </mxCell>
        <mxCell id="J-ahsq5juDmwi4g34Pzo-26" value="" style="endArrow=classic;html=1;rounded=0;" edge="1" parent="1">
          <mxGeometry width="50" height="50" relative="1" as="geometry">
            <mxPoint x="580" y="290" as="sourcePoint" />
            <mxPoint x="460" y="290" as="targetPoint" />
          </mxGeometry>
        </mxCell>
        <mxCell id="J-ahsq5juDmwi4g34Pzo-27" value="Change data" style="text;html=1;align=center;verticalAlign=middle;whiteSpace=wrap;rounded=0;" vertex="1" parent="1">
          <mxGeometry x="480" y="240" width="80" height="30" as="geometry" />
        </mxCell>
        <mxCell id="J-ahsq5juDmwi4g34Pzo-28" value="Reply" style="text;html=1;align=center;verticalAlign=middle;whiteSpace=wrap;rounded=0;" vertex="1" parent="1">
          <mxGeometry x="490" y="290" width="70" height="30" as="geometry" />
        </mxCell>
        <mxCell id="J-ahsq5juDmwi4g34Pzo-29" value="Role" style="shape=partialRectangle;whiteSpace=wrap;html=1;left=0;right=0;fillColor=none;" vertex="1" parent="1">
          <mxGeometry x="630" y="390" width="120" height="40" as="geometry" />
        </mxCell>
        <mxCell id="J-ahsq5juDmwi4g34Pzo-30" value="D1" style="rounded=0;whiteSpace=wrap;html=1;" vertex="1" parent="1">
          <mxGeometry x="580" y="390" width="50" height="40" as="geometry" />
        </mxCell>
        <mxCell id="J-ahsq5juDmwi4g34Pzo-31" value="3.0" style="swimlane;whiteSpace=wrap;html=1;rounded=1;startSize=40;" vertex="1" parent="1">
          <mxGeometry x="320" y="360" width="140" height="100" as="geometry" />
        </mxCell>
        <mxCell id="J-ahsq5juDmwi4g34Pzo-32" value="Manage Role" style="text;html=1;align=center;verticalAlign=middle;resizable=0;points=[];autosize=1;strokeColor=none;fillColor=none;" vertex="1" parent="1">
          <mxGeometry x="345" y="408" width="90" height="30" as="geometry" />
        </mxCell>
        <mxCell id="J-ahsq5juDmwi4g34Pzo-33" value="" style="endArrow=classic;html=1;rounded=0;entryX=0;entryY=0.25;entryDx=0;entryDy=0;" edge="1" parent="1" target="J-ahsq5juDmwi4g34Pzo-30">
          <mxGeometry width="50" height="50" relative="1" as="geometry">
            <mxPoint x="460" y="400" as="sourcePoint" />
            <mxPoint x="510" y="350" as="targetPoint" />
          </mxGeometry>
        </mxCell>
        <mxCell id="J-ahsq5juDmwi4g34Pzo-34" value="" style="endArrow=classic;html=1;rounded=0;" edge="1" parent="1">
          <mxGeometry width="50" height="50" relative="1" as="geometry">
            <mxPoint x="580" y="420" as="sourcePoint" />
            <mxPoint x="460" y="420" as="targetPoint" />
          </mxGeometry>
        </mxCell>
        <mxCell id="J-ahsq5juDmwi4g34Pzo-35" value="Change data" style="text;html=1;align=center;verticalAlign=middle;whiteSpace=wrap;rounded=0;" vertex="1" parent="1">
          <mxGeometry x="480" y="370" width="80" height="30" as="geometry" />
        </mxCell>
        <mxCell id="J-ahsq5juDmwi4g34Pzo-36" value="Reply" style="text;html=1;align=center;verticalAlign=middle;whiteSpace=wrap;rounded=0;" vertex="1" parent="1">
          <mxGeometry x="490" y="420" width="70" height="30" as="geometry" />
        </mxCell>
        <mxCell id="J-ahsq5juDmwi4g34Pzo-37" value="Attendance" style="shape=partialRectangle;whiteSpace=wrap;html=1;left=0;right=0;fillColor=none;" vertex="1" parent="1">
          <mxGeometry x="630" y="520" width="120" height="40" as="geometry" />
        </mxCell>
        <mxCell id="J-ahsq5juDmwi4g34Pzo-38" value="D1" style="rounded=0;whiteSpace=wrap;html=1;" vertex="1" parent="1">
          <mxGeometry x="580" y="520" width="50" height="40" as="geometry" />
        </mxCell>
        <mxCell id="J-ahsq5juDmwi4g34Pzo-39" value="4.0" style="swimlane;whiteSpace=wrap;html=1;rounded=1;startSize=40;" vertex="1" parent="1">
          <mxGeometry x="320" y="490" width="140" height="100" as="geometry" />
        </mxCell>
        <mxCell id="J-ahsq5juDmwi4g34Pzo-40" value="Manage Attendance" style="text;html=1;align=center;verticalAlign=middle;resizable=0;points=[];autosize=1;strokeColor=none;fillColor=none;" vertex="1" parent="1">
          <mxGeometry x="325" y="538" width="130" height="30" as="geometry" />
        </mxCell>
        <mxCell id="J-ahsq5juDmwi4g34Pzo-41" value="" style="endArrow=classic;html=1;rounded=0;entryX=0;entryY=0.25;entryDx=0;entryDy=0;" edge="1" parent="1" target="J-ahsq5juDmwi4g34Pzo-38">
          <mxGeometry width="50" height="50" relative="1" as="geometry">
            <mxPoint x="460" y="530" as="sourcePoint" />
            <mxPoint x="510" y="480" as="targetPoint" />
          </mxGeometry>
        </mxCell>
        <mxCell id="J-ahsq5juDmwi4g34Pzo-42" value="" style="endArrow=classic;html=1;rounded=0;" edge="1" parent="1">
          <mxGeometry width="50" height="50" relative="1" as="geometry">
            <mxPoint x="580" y="550" as="sourcePoint" />
            <mxPoint x="460" y="550" as="targetPoint" />
          </mxGeometry>
        </mxCell>
        <mxCell id="J-ahsq5juDmwi4g34Pzo-43" value="Change data" style="text;html=1;align=center;verticalAlign=middle;whiteSpace=wrap;rounded=0;" vertex="1" parent="1">
          <mxGeometry x="480" y="500" width="80" height="30" as="geometry" />
        </mxCell>
        <mxCell id="J-ahsq5juDmwi4g34Pzo-44" value="Reply" style="text;html=1;align=center;verticalAlign=middle;whiteSpace=wrap;rounded=0;" vertex="1" parent="1">
          <mxGeometry x="490" y="550" width="70" height="30" as="geometry" />
        </mxCell>
        <mxCell id="J-ahsq5juDmwi4g34Pzo-45" value="Leave" style="shape=partialRectangle;whiteSpace=wrap;html=1;left=0;right=0;fillColor=none;" vertex="1" parent="1">
          <mxGeometry x="630" y="650" width="120" height="40" as="geometry" />
        </mxCell>
        <mxCell id="J-ahsq5juDmwi4g34Pzo-46" value="D1" style="rounded=0;whiteSpace=wrap;html=1;" vertex="1" parent="1">
          <mxGeometry x="580" y="650" width="50" height="40" as="geometry" />
        </mxCell>
        <mxCell id="J-ahsq5juDmwi4g34Pzo-47" value="5.0" style="swimlane;whiteSpace=wrap;html=1;rounded=1;startSize=40;" vertex="1" parent="1">
          <mxGeometry x="320" y="620" width="140" height="100" as="geometry" />
        </mxCell>
        <mxCell id="J-ahsq5juDmwi4g34Pzo-48" value="Manage Leave" style="text;html=1;align=center;verticalAlign=middle;resizable=0;points=[];autosize=1;strokeColor=none;fillColor=none;" vertex="1" parent="1">
          <mxGeometry x="340" y="668" width="100" height="30" as="geometry" />
        </mxCell>
        <mxCell id="J-ahsq5juDmwi4g34Pzo-49" value="" style="endArrow=classic;html=1;rounded=0;entryX=0;entryY=0.25;entryDx=0;entryDy=0;" edge="1" parent="1" target="J-ahsq5juDmwi4g34Pzo-46">
          <mxGeometry width="50" height="50" relative="1" as="geometry">
            <mxPoint x="460" y="660" as="sourcePoint" />
            <mxPoint x="510" y="610" as="targetPoint" />
          </mxGeometry>
        </mxCell>
        <mxCell id="J-ahsq5juDmwi4g34Pzo-50" value="" style="endArrow=classic;html=1;rounded=0;" edge="1" parent="1">
          <mxGeometry width="50" height="50" relative="1" as="geometry">
            <mxPoint x="580" y="680" as="sourcePoint" />
            <mxPoint x="460" y="680" as="targetPoint" />
          </mxGeometry>
        </mxCell>
        <mxCell id="J-ahsq5juDmwi4g34Pzo-51" value="Change data" style="text;html=1;align=center;verticalAlign=middle;whiteSpace=wrap;rounded=0;" vertex="1" parent="1">
          <mxGeometry x="480" y="630" width="80" height="30" as="geometry" />
        </mxCell>
        <mxCell id="J-ahsq5juDmwi4g34Pzo-52" value="Reply" style="text;html=1;align=center;verticalAlign=middle;whiteSpace=wrap;rounded=0;" vertex="1" parent="1">
          <mxGeometry x="490" y="680" width="70" height="30" as="geometry" />
        </mxCell>
        <mxCell id="J-ahsq5juDmwi4g34Pzo-53" value="Employee" style="shape=partialRectangle;whiteSpace=wrap;html=1;left=0;right=0;fillColor=none;" vertex="1" parent="1">
          <mxGeometry x="630" y="790" width="120" height="40" as="geometry" />
        </mxCell>
        <mxCell id="J-ahsq5juDmwi4g34Pzo-54" value="D1" style="rounded=0;whiteSpace=wrap;html=1;" vertex="1" parent="1">
          <mxGeometry x="580" y="790" width="50" height="40" as="geometry" />
        </mxCell>
        <mxCell id="J-ahsq5juDmwi4g34Pzo-55" value="6.0" style="swimlane;whiteSpace=wrap;html=1;rounded=1;startSize=40;" vertex="1" parent="1">
          <mxGeometry x="320" y="750" width="140" height="100" as="geometry" />
        </mxCell>
        <mxCell id="J-ahsq5juDmwi4g34Pzo-56" value="Manage Organisation" style="text;html=1;align=center;verticalAlign=middle;resizable=0;points=[];autosize=1;strokeColor=none;fillColor=none;" vertex="1" parent="1">
          <mxGeometry x="320" y="808" width="140" height="30" as="geometry" />
        </mxCell>
        <mxCell id="J-ahsq5juDmwi4g34Pzo-57" value="" style="endArrow=classic;html=1;rounded=0;entryX=0;entryY=0.25;entryDx=0;entryDy=0;" edge="1" parent="1" target="J-ahsq5juDmwi4g34Pzo-54">
          <mxGeometry width="50" height="50" relative="1" as="geometry">
            <mxPoint x="460" y="800" as="sourcePoint" />
            <mxPoint x="510" y="750" as="targetPoint" />
          </mxGeometry>
        </mxCell>
        <mxCell id="J-ahsq5juDmwi4g34Pzo-58" value="" style="endArrow=classic;html=1;rounded=0;" edge="1" parent="1">
          <mxGeometry width="50" height="50" relative="1" as="geometry">
            <mxPoint x="580" y="820" as="sourcePoint" />
            <mxPoint x="460" y="820" as="targetPoint" />
          </mxGeometry>
        </mxCell>
        <mxCell id="J-ahsq5juDmwi4g34Pzo-59" value="Change data" style="text;html=1;align=center;verticalAlign=middle;whiteSpace=wrap;rounded=0;" vertex="1" parent="1">
          <mxGeometry x="480" y="770" width="80" height="30" as="geometry" />
        </mxCell>
        <mxCell id="J-ahsq5juDmwi4g34Pzo-60" value="Reply" style="text;html=1;align=center;verticalAlign=middle;whiteSpace=wrap;rounded=0;" vertex="1" parent="1">
          <mxGeometry x="490" y="820" width="70" height="30" as="geometry" />
        </mxCell>
        <mxCell id="J-ahsq5juDmwi4g34Pzo-85" value="Role" style="shape=partialRectangle;whiteSpace=wrap;html=1;left=0;right=0;fillColor=none;" vertex="1" parent="1">
          <mxGeometry x="630" y="1180" width="120" height="40" as="geometry" />
        </mxCell>
        <mxCell id="J-ahsq5juDmwi4g34Pzo-86" value="D1" style="rounded=0;whiteSpace=wrap;html=1;" vertex="1" parent="1">
          <mxGeometry x="580" y="1180" width="50" height="40" as="geometry" />
        </mxCell>
        <mxCell id="J-ahsq5juDmwi4g34Pzo-87" value="9.0" style="swimlane;whiteSpace=wrap;html=1;rounded=1;startSize=40;" vertex="1" parent="1">
          <mxGeometry x="320" y="1140" width="140" height="100" as="geometry" />
        </mxCell>
        <mxCell id="J-ahsq5juDmwi4g34Pzo-88" value="Manage Role" style="text;html=1;align=center;verticalAlign=middle;resizable=0;points=[];autosize=1;strokeColor=none;fillColor=none;" vertex="1" parent="1">
          <mxGeometry x="345" y="1198" width="90" height="30" as="geometry" />
        </mxCell>
        <mxCell id="J-ahsq5juDmwi4g34Pzo-89" value="" style="endArrow=classic;html=1;rounded=0;entryX=0;entryY=0.25;entryDx=0;entryDy=0;" edge="1" parent="1" target="J-ahsq5juDmwi4g34Pzo-86">
          <mxGeometry width="50" height="50" relative="1" as="geometry">
            <mxPoint x="460" y="1190" as="sourcePoint" />
            <mxPoint x="510" y="1140" as="targetPoint" />
          </mxGeometry>
        </mxCell>
        <mxCell id="J-ahsq5juDmwi4g34Pzo-90" value="" style="endArrow=classic;html=1;rounded=0;" edge="1" parent="1">
          <mxGeometry width="50" height="50" relative="1" as="geometry">
            <mxPoint x="580" y="1210" as="sourcePoint" />
            <mxPoint x="460" y="1210" as="targetPoint" />
          </mxGeometry>
        </mxCell>
        <mxCell id="J-ahsq5juDmwi4g34Pzo-91" value="Change data" style="text;html=1;align=center;verticalAlign=middle;whiteSpace=wrap;rounded=0;" vertex="1" parent="1">
          <mxGeometry x="480" y="1160" width="80" height="30" as="geometry" />
        </mxCell>
        <mxCell id="J-ahsq5juDmwi4g34Pzo-92" value="Reply" style="text;html=1;align=center;verticalAlign=middle;whiteSpace=wrap;rounded=0;" vertex="1" parent="1">
          <mxGeometry x="490" y="1210" width="70" height="30" as="geometry" />
        </mxCell>
        <mxCell id="J-ahsq5juDmwi4g34Pzo-101" value="" style="edgeStyle=segmentEdgeStyle;endArrow=classic;html=1;curved=0;rounded=0;endSize=8;startSize=8;entryX=0.8;entryY=1;entryDx=0;entryDy=0;entryPerimeter=0;" edge="1" parent="1">
          <mxGeometry width="50" height="50" relative="1" as="geometry">
            <mxPoint x="320" y="290" as="sourcePoint" />
            <mxPoint x="168" y="170" as="targetPoint" />
          </mxGeometry>
        </mxCell>
        <mxCell id="J-ahsq5juDmwi4g34Pzo-118" value="" style="endArrow=classic;html=1;rounded=0;" edge="1" parent="1">
          <mxGeometry width="50" height="50" relative="1" as="geometry">
            <mxPoint x="190" y="270" as="sourcePoint" />
            <mxPoint x="320" y="270" as="targetPoint" />
          </mxGeometry>
        </mxCell>
        <mxCell id="J-ahsq5juDmwi4g34Pzo-119" value="" style="endArrow=none;html=1;rounded=0;" edge="1" parent="1">
          <mxGeometry width="50" height="50" relative="1" as="geometry">
            <mxPoint x="190" y="270" as="sourcePoint" />
            <mxPoint x="190" y="169" as="targetPoint" />
          </mxGeometry>
        </mxCell>
        <mxCell id="J-ahsq5juDmwi4g34Pzo-120" value="Resquest Manage" style="text;html=1;align=center;verticalAlign=middle;whiteSpace=wrap;rounded=0;" vertex="1" parent="1">
          <mxGeometry x="190" y="240" width="120" height="30" as="geometry" />
        </mxCell>
        <mxCell id="J-ahsq5juDmwi4g34Pzo-121" value="Response" style="text;html=1;align=center;verticalAlign=middle;whiteSpace=wrap;rounded=0;" vertex="1" parent="1">
          <mxGeometry x="210" y="290" width="70" height="30" as="geometry" />
        </mxCell>
        <mxCell id="J-ahsq5juDmwi4g34Pzo-122" value="" style="edgeStyle=segmentEdgeStyle;endArrow=classic;html=1;curved=0;rounded=0;endSize=8;startSize=8;entryX=0.8;entryY=1;entryDx=0;entryDy=0;entryPerimeter=0;" edge="1" parent="1">
          <mxGeometry width="50" height="50" relative="1" as="geometry">
            <mxPoint x="320" y="420" as="sourcePoint" />
            <mxPoint x="120" y="167.97" as="targetPoint" />
          </mxGeometry>
        </mxCell>
        <mxCell id="J-ahsq5juDmwi4g34Pzo-123" value="" style="endArrow=classic;html=1;rounded=0;" edge="1" parent="1">
          <mxGeometry width="50" height="50" relative="1" as="geometry">
            <mxPoint x="140" y="400" as="sourcePoint" />
            <mxPoint x="320" y="400" as="targetPoint" />
          </mxGeometry>
        </mxCell>
        <mxCell id="J-ahsq5juDmwi4g34Pzo-124" value="" style="endArrow=none;html=1;rounded=0;" edge="1" parent="1">
          <mxGeometry width="50" height="50" relative="1" as="geometry">
            <mxPoint x="140" y="400" as="sourcePoint" />
            <mxPoint x="140" y="170" as="targetPoint" />
          </mxGeometry>
        </mxCell>
        <mxCell id="J-ahsq5juDmwi4g34Pzo-125" value="Resquest Manage" style="text;html=1;align=center;verticalAlign=middle;whiteSpace=wrap;rounded=0;" vertex="1" parent="1">
          <mxGeometry x="190" y="370" width="120" height="30" as="geometry" />
        </mxCell>
        <mxCell id="J-ahsq5juDmwi4g34Pzo-126" value="Response" style="text;html=1;align=center;verticalAlign=middle;whiteSpace=wrap;rounded=0;" vertex="1" parent="1">
          <mxGeometry x="210" y="420" width="70" height="30" as="geometry" />
        </mxCell>
        <mxCell id="J-ahsq5juDmwi4g34Pzo-127" value="" style="endArrow=classic;html=1;rounded=0;" edge="1" parent="1">
          <mxGeometry width="50" height="50" relative="1" as="geometry">
            <mxPoint x="100" y="530" as="sourcePoint" />
            <mxPoint x="320" y="530" as="targetPoint" />
          </mxGeometry>
        </mxCell>
        <mxCell id="J-ahsq5juDmwi4g34Pzo-128" value="" style="endArrow=none;html=1;rounded=0;entryX=0.549;entryY=0.971;entryDx=0;entryDy=0;entryPerimeter=0;" edge="1" parent="1" target="J-ahsq5juDmwi4g34Pzo-12">
          <mxGeometry width="50" height="50" relative="1" as="geometry">
            <mxPoint x="100" y="530" as="sourcePoint" />
            <mxPoint x="100" y="470" as="targetPoint" />
          </mxGeometry>
        </mxCell>
        <mxCell id="J-ahsq5juDmwi4g34Pzo-129" value="" style="edgeStyle=segmentEdgeStyle;endArrow=classic;html=1;curved=0;rounded=0;endSize=8;startSize=8;entryX=0.8;entryY=1;entryDx=0;entryDy=0;entryPerimeter=0;" edge="1" parent="1">
          <mxGeometry width="50" height="50" relative="1" as="geometry">
            <mxPoint x="320" y="550" as="sourcePoint" />
            <mxPoint x="80" y="170" as="targetPoint" />
          </mxGeometry>
        </mxCell>
        <mxCell id="J-ahsq5juDmwi4g34Pzo-130" value="Resquest Manage" style="text;html=1;align=center;verticalAlign=middle;whiteSpace=wrap;rounded=0;" vertex="1" parent="1">
          <mxGeometry x="190" y="500" width="120" height="30" as="geometry" />
        </mxCell>
        <mxCell id="J-ahsq5juDmwi4g34Pzo-131" value="Response" style="text;html=1;align=center;verticalAlign=middle;whiteSpace=wrap;rounded=0;" vertex="1" parent="1">
          <mxGeometry x="210" y="550" width="70" height="30" as="geometry" />
        </mxCell>
        <mxCell id="J-ahsq5juDmwi4g34Pzo-132" value="" style="endArrow=classic;html=1;rounded=0;" edge="1" parent="1">
          <mxGeometry width="50" height="50" relative="1" as="geometry">
            <mxPoint x="60" y="660" as="sourcePoint" />
            <mxPoint x="320" y="660" as="targetPoint" />
          </mxGeometry>
        </mxCell>
        <mxCell id="J-ahsq5juDmwi4g34Pzo-133" value="" style="endArrow=none;html=1;rounded=0;" edge="1" parent="1">
          <mxGeometry width="50" height="50" relative="1" as="geometry">
            <mxPoint x="60" y="660" as="sourcePoint" />
            <mxPoint x="60" y="170" as="targetPoint" />
          </mxGeometry>
        </mxCell>
        <mxCell id="J-ahsq5juDmwi4g34Pzo-134" value="Resquest Manage" style="text;html=1;align=center;verticalAlign=middle;whiteSpace=wrap;rounded=0;" vertex="1" parent="1">
          <mxGeometry x="190" y="630" width="120" height="30" as="geometry" />
        </mxCell>
        <mxCell id="J-ahsq5juDmwi4g34Pzo-135" value="Response" style="text;html=1;align=center;verticalAlign=middle;whiteSpace=wrap;rounded=0;" vertex="1" parent="1">
          <mxGeometry x="210" y="680" width="70" height="30" as="geometry" />
        </mxCell>
        <mxCell id="J-ahsq5juDmwi4g34Pzo-136" value="" style="edgeStyle=segmentEdgeStyle;endArrow=classic;html=1;curved=0;rounded=0;endSize=8;startSize=8;entryX=0.275;entryY=1.018;entryDx=0;entryDy=0;entryPerimeter=0;" edge="1" parent="1" target="J-ahsq5juDmwi4g34Pzo-12">
          <mxGeometry width="50" height="50" relative="1" as="geometry">
            <mxPoint x="320" y="680" as="sourcePoint" />
            <mxPoint x="40" y="300" as="targetPoint" />
          </mxGeometry>
        </mxCell>
        <mxCell id="J-ahsq5juDmwi4g34Pzo-138" value="" style="endArrow=classic;html=1;rounded=0;" edge="1" parent="1">
          <mxGeometry width="50" height="50" relative="1" as="geometry">
            <mxPoint x="20" y="790" as="sourcePoint" />
            <mxPoint x="320" y="789.31" as="targetPoint" />
          </mxGeometry>
        </mxCell>
        <mxCell id="J-ahsq5juDmwi4g34Pzo-139" value="" style="endArrow=none;html=1;rounded=0;" edge="1" parent="1">
          <mxGeometry width="50" height="50" relative="1" as="geometry">
            <mxPoint x="20" y="790" as="sourcePoint" />
            <mxPoint x="20" y="170" as="targetPoint" />
          </mxGeometry>
        </mxCell>
        <mxCell id="J-ahsq5juDmwi4g34Pzo-140" value="Resquest Manage" style="text;html=1;align=center;verticalAlign=middle;whiteSpace=wrap;rounded=0;" vertex="1" parent="1">
          <mxGeometry x="190" y="760" width="120" height="30" as="geometry" />
        </mxCell>
        <mxCell id="J-ahsq5juDmwi4g34Pzo-141" value="" style="edgeStyle=segmentEdgeStyle;endArrow=classic;html=1;curved=0;rounded=0;endSize=8;startSize=8;entryX=0.093;entryY=0.986;entryDx=0;entryDy=0;entryPerimeter=0;exitX=-0.004;exitY=0.283;exitDx=0;exitDy=0;exitPerimeter=0;" edge="1" parent="1" source="J-ahsq5juDmwi4g34Pzo-56" target="J-ahsq5juDmwi4g34Pzo-12">
          <mxGeometry width="50" height="50" relative="1" as="geometry">
            <mxPoint x="318" y="816" as="sourcePoint" />
            <mxPoint x="0.030000000000001137" y="308" as="targetPoint" />
          </mxGeometry>
        </mxCell>
        <mxCell id="J-ahsq5juDmwi4g34Pzo-142" value="Response" style="text;html=1;align=center;verticalAlign=middle;whiteSpace=wrap;rounded=0;" vertex="1" parent="1">
          <mxGeometry x="210" y="820" width="70" height="30" as="geometry" />
        </mxCell>
      </root>
    </mxGraphModel>
  </diagram>
</mxfile>
